<svg width="48" height="58.85" viewBox="0 0 48 58.85" xmlns="http://www.w3.org/2000/svg">
  <g transform="scale(1, 1.05)">
  <circle fill="#fda" cx="25" cy="17" r="12" />
  <ellipse fill="#000" cx="20" rx="2.5" ry="1.9" cy="13" />
  <ellipse fill="#000" cx="30" rx="2.5" ry="1.9" cy="13" />
  <ellipse fill="#f0f0f0" cx="20" cy="13" ry=".8" rx="1" />
  <ellipse fill="#f0f0f0" cx="30" cy="13" ry=".8" rx="1" />
  <polygon fill="#ffc876" points="22 21 25 16 28 21" />
  <path d="M20 23C20 23 25 28 30 23" fill="#e26262" />
  <polygon points="12 9 20.5 0 30.5 0 38 9" fill="#000" />
  <rect width="10" height="8" fill="#fda" ry="2" rx="2.8" x="21" y="25" />
  <rect width="12" height="16" rx="2" x="20" y="28" fill="#00f" />
  <rect width="5" rx="3" height="20" stroke="transparent" x="32" y="30" fill="#fda" transform="rotate(315, 34.5, 36)" />
  <rect width="5" rx="3" height="20" stroke="transparent" x="15" y="30" fill="#fda" transform="rotate(45, 17.5, 36)" />
  <rect width="6" rx="3" height="10" stroke="transparent" x="31.5" y="29" fill="#00f" transform="rotate(315, 34.5, 36)" />
  <rect width="6" rx="3" height="10" stroke="transparent" x="14.5" y="29" fill="#00f" transform="rotate(45, 17.5, 36)" />
  <rect width="4" height="15" fill="#00f" x="20" y="40" rx="3" />
  <rect width="4" height="15" fill="#00f" x="28" y="40" rx="3" />
  <rect width="12" height="4" x="12" fill="#472000" y="52" rx="2" />
  <rect width="12" height="4" fill="#472000" y="52" x="28" rx="2" />
  </g>
</svg>